<?xml version="1.0" encoding="utf-8"?>
<!-- Generator: Adobe Illustrator 19.0.0, SVG Export Plug-In . SVG Version: 6.00 Build 0)  -->
<svg version="1.1" width="1000" height="700" xmlns="http://www.w3.org/2000/svg" xmlns:xlink="http://www.w3.org/1999/xlink" x="0px" y="0px"
	 viewBox="0 0 750 500" style="enable-background:new 0 0 750 500;" xml:space="preserve">
<style type="text/css">
	.st0{fill:#5D79AF;}
	.st1{fill:#F8E8DD;}
	.st2{fill:none;stroke:#F1A24C;stroke-width:2;stroke-miterlimit:10;}
	.st3{fill:#A3A357;}
	.st4{fill:#F1A24C;}
	.st5{fill:#B2B661;}
	.st6{fill:#898743;}
	.st7{fill:none;stroke:#728BCB;stroke-miterlimit:10;}
	.st8{fill:none;stroke:#B2B661;stroke-miterlimit:10;stroke-dasharray:4;}
	.st9{fill:#FFC593;}
	.st10{fill:none;stroke:#A3A357;stroke-miterlimit:10;}
	.st11{fill:none;stroke:#812C53;stroke-miterlimit:10;}
	.st12{fill:#728BCB;}
	.st13{fill:#4C1E3C;}
	.st14{fill:#812C53;}
	.st15{fill:#602945;}
	.st16{fill:#FFFFFF;}
	.st17{fill:#EFD6C5;}
	.st18{fill:none;stroke:#D6D6D6;stroke-miterlimit:10;}
	.st19{fill:#FF6545;}
	.st20{fill:#FF6447;}
	.st21{fill:#DB8835;}
	.st22{fill:#EFEBFF;}
	.st23{fill:#EDA36B;}
</style>
<g id="BACKGROUND">
</g>
<g id="OBJECT">
	<g>
		<polygon class="st0" points="338,432.2 340.5,431.9 340.6,432.4 338.2,433.2 		"/>
		<path class="st1" d="M604.1,398.3c5.9-21.4,9-44,9-67.2c0-140.5-113.9-254.5-254.5-254.5S104.1,190.6,104.1,331.1
			c0,23.3,3.1,45.8,9,67.2H604.1z"/>
		<line class="st2" x1="74.2" y1="398.3" x2="658.1" y2="398.3"/>
		<g>
			<path class="st3" d="M132.4,365.6c-2.8,1-5.9,2.9-8.7,5c3.2-4.9,6.7-10.9,6.7-10.9l19.6,3c-2.6-3.8-16.9-11.7-23.8-5.8
				c-2.2,1.9-4.3,4.9-6.2,8c-0.8-5.7-2-11.7-4.1-14.8c-4.6-7-23.5-11.2-23.5-11.2c1.6,3.3,17.8,12.9,17.8,12.9l2.8,11.5
				c-1.6-2.4-3.2-4.5-5-6c-6.8-6-21.2,1.9-23.8,5.8l19.6-3c0,0,3.5,5.9,6.7,10.9c-2.8-2.1-5.9-4.1-8.7-5
				c-7.7-2.7-15.7,12.8-15.7,12.8l14.2-9.3c0,0,8.3,6.4,13,9c-0.2,0.5-0.3,0.8-0.3,0.8s0.7,0,1.6-0.2c0.5,0.2,0.9,0.4,1.2,0.4
				c1.6,0.2,2.5,0,2.9-0.2c1.3,0.3,2.3,0.3,2.3,0.3s-0.1-0.2-0.3-0.7l0.3,0c0,0,0-0.4,0-1c4.8-2.7,12.7-8.8,12.7-8.8l14.2,9.3
				C148.1,378.4,140.1,363,132.4,365.6z"/>
			<path class="st4" d="M132,376.3h-9.8h-10h-9.8c0,0-1.7,11.6,6.4,21.3h3.4h10h3.4C133.7,387.9,132,376.3,132,376.3z"/>
		</g>
		<rect x="547.8" y="94.7" class="st5" width="63.3" height="9.9"/>
		<g>
			<polygon class="st5" points="405.9,438.4 438.6,451.3 495.5,440.9 464.4,427.5 			"/>
			<path class="st3" d="M438.6,451.3v9.4l56.9-11.9c0,0,2.5-3.1,0-8L438.6,451.3z"/>
			<polygon class="st1" points="408.4,439.4 408.4,448.3 438.6,460.7 438.6,451.3 			"/>
			<polygon class="st6" points="405.9,438.4 405.9,439.4 437.7,452 437.7,458.7 406.2,446.2 406.2,447.5 438.6,460.7 438.6,452.4 
				438.6,451.3 438.6,451.1 			"/>
		</g>
		<circle class="st7" cx="296.9" cy="87.5" r="15.5"/>
		<circle class="st8" cx="463.2" cy="87.5" r="18.6"/>
		<circle class="st9" cx="579.4" cy="126.6" r="8.4"/>
		<path class="st4" d="M399.7,63c-0.2-0.5-0.4-1-0.6-1.5l5.1-10.1l-1.8-1.5L398,46l-1.8-1.5l-8.3,5.7c-1-0.5-2-0.9-3-1.3l-2.5-9.6
			h-2.3h-5.8h-2.3l-2.4,9.5c-1.1,0.4-2.1,0.8-3.1,1.3l-8.3-5.7l-1.8,1.5l-4.4,3.9l-1.8,1.5l5.1,10.1c-0.2,0.5-0.4,1-0.6,1.5
			l-9.7,2.5v2.3v5.8V76l9,2.3c0.2,0.8,0.5,1.5,0.8,2.2l-5.2,10.2l1.8,1.5l4.4,3.9l1.8,1.5l7.6-5.2c1.3,0.8,2.6,1.4,4.1,1.9l2.2,8.4
			h2.3h5.8h2.3l2-7.9c1.7-0.5,3.3-1.1,4.8-2l7,4.8l1.8-1.5l4.4-3.9l1.8-1.5l-4.5-8.8c0.5-1.2,1-2.4,1.4-3.7l8.9-2.3v-2.3v-5.8v-2.3
			L399.7,63z M389,71.7c0,6.2-5,11.2-11.2,11.2c-6.2,0-11.2-5-11.2-11.2c0-6.2,5-11.2,11.2-11.2C384,60.5,389,65.5,389,71.7z"/>
		<g>
			<circle class="st8" cx="141.7" cy="170.5" r="29.2"/>
			<path class="st10" d="M154.9,165.8c-0.1-0.3-0.2-0.6-0.4-0.9l3-5.9l-1-0.9l-2.6-2.3l-1-0.9l-4.9,3.3c-0.6-0.3-1.2-0.5-1.8-0.7
				l-1.4-5.6h-1.4H140h-1.4l-1.4,5.6c-0.6,0.2-1.2,0.5-1.8,0.8l-4.9-3.3l-1,0.9l-2.6,2.3l-1,0.9l3,5.9c-0.1,0.3-0.3,0.6-0.4,0.9
				l-5.7,1.5v1.4v3.4v1.4l5.3,1.4c0.1,0.4,0.3,0.9,0.4,1.3l-3.1,6l1,0.9l2.6,2.3l1,0.9l4.5-3c0.8,0.4,1.6,0.8,2.4,1.1l1.3,4.9h1.4
				h3.4h1.4l1.2-4.7c1-0.3,1.9-0.7,2.8-1.2l4.1,2.8l1-0.9l2.6-2.3l1-0.9l-2.6-5.2c0.3-0.7,0.6-1.4,0.8-2.1l5.2-1.3V172v-3.4v-1.4
				L154.9,165.8z M148.6,170.9c0,3.6-3,6.6-6.6,6.6s-6.6-3-6.6-6.6c0-3.6,3-6.6,6.6-6.6S148.6,167.2,148.6,170.9z"/>
		</g>
		<path class="st9" d="M279.2,440.1l49.1-9.9c0,0,4.8,3.2,3.1,9.8l-58.6,12.3L279.2,440.1z"/>
		<path class="st4" d="M328.2,430.2l10,1.6l0.4,1.6l-7.2,6.6C331.3,440,333,433.8,328.2,430.2z"/>
		<path class="st5" d="M282.5,450.3l-15.3,3.2c0,0-5.3-2.5-3-10.1l15.3-3.4C279.4,440.1,283.9,443.6,282.5,450.3z"/>
		<path class="st6" d="M267.1,453.5c0,0-5.3-2.5-3-10.1C264.1,443.5,268.8,447.1,267.1,453.5z"/>
		<g>
			<circle class="st11" cx="204.1" cy="81.3" r="22.1"/>
			<ellipse class="st11" cx="204.1" cy="81.3" rx="7.3" ry="22.1"/>
			<path class="st11" d="M184.2,71.6c0,0,19.1,7.7,39.8,0"/>
			<path class="st11" d="M224,91.4c0,0-19.1-7.7-39.8,0"/>
			<line class="st11" x1="181.9" y1="81.3" x2="226.2" y2="81.3"/>
		</g>
		<g>
			<path class="st12" d="M115.5,266.4c-1.1,1.2-2.6,1.9-4.5,2.3v0.8c0,1.3-1.1,2.4-2.4,2.4l0,0c-1.3,0-2.4-1.1-2.4-2.4v-0.7
				c-2.1-0.2-3.8-0.8-5.2-1.6c-0.7-0.4-0.9-1.2-0.6-2l0.3-0.7c0.4-0.9,1.4-1.3,2.3-0.8c0,0,0,0,0,0c0.7,0.4,1.5,0.7,2.3,1
				c0.9,0.3,1.8,0.4,2.7,0.4c1.1,0,2-0.2,2.8-0.7c0.7-0.5,1.1-0.9,1.1-1.8c0-0.6-0.2-1.1-0.6-1.5c-0.5-0.4-1-0.8-1.7-1
				c-0.6-0.3-1.5-0.5-2.5-0.8c-1.4-0.4-2.6-0.9-3.6-1.4s-1.8-1.3-2.5-2.3c-0.6-1-1-2.1-1-3.6c0-1.1,0.2-2,0.7-2.9
				c0.5-0.9,1.2-1.6,2.1-2.2c0.9-0.6,2-1,3.3-1.3v-1.5c0-1.3,1.1-2.4,2.4-2.4l0,0c1.3,0,2.4,1.1,2.4,2.4v1.5c1.1,0.2,2.1,0.5,3,1
				c0.2,0.1,0.3,0.2,0.5,0.3c0.8,0.5,1.1,1.5,0.7,2.3l0,0c-0.5,1-1.6,1.3-2.5,0.8c-0.5-0.3-1.1-0.6-1.4-0.7
				c-0.7-0.3-1.5-0.4-2.2-0.4c-1.1,0-2.1,0.2-2.8,0.7c-0.8,0.5-1.1,1.2-1.1,2.1c0,1,0.4,1.8,1.3,2.3c0.9,0.5,1.9,0.9,3.3,1.2
				c2.2,0.5,4,1.4,5.4,2.6c1.4,1.2,2.1,2.7,2.1,4.4C117.1,263.8,116.6,265.2,115.5,266.4z"/>
		</g>
	</g>
	<g>
		<g>
			<path class="st13" d="M615.9,184.6L652,326.3c0.4,1.6,2.1,2.4,3.6,1.8l0,0c1.2-0.5,1.9-1.8,1.5-3.1L621,184.1L615.9,184.6z"/>
			<path class="st14" d="M583.7,149.5l18.6,3c10.8,1.7,19.3,10.1,21.1,20.8v0c1.7,9.8-2.4,19.6-10.6,25.3L592.1,213L583.7,149.5z"/>
			<path class="st15" d="M589,214c-3.9,0.8-7.8,0.2-11.5-1.6c-8.3-4-15.4-13.7-18.1-26.2c-2.5-11.9-0.3-23.2,5.1-30.3
				c2.8-3.6,6.4-6.2,10.7-7.1c12.5-2.7,25.8,9.8,29.6,27.7C608.6,194.6,601.5,211.3,589,214z"/>
			<path class="st14" d="M613.7,160l12.6,0.4c5.3,0.2,9.7,4.3,10.1,9.7l0,0c0.4,4.7-2.5,9.1-6.9,10.7l-10.7,3.8L613.7,160z"/>
			<path class="st14" d="M577.5,212.4c-8.3-4-15.4-13.7-18.1-26.2c-2.5-11.9-0.3-23.2,5.1-30.3c9.1,2.5,24.9,8.5,28.4,20.4
				C596.8,190,588.8,205.9,577.5,212.4z"/>
			<circle class="st16" cx="587.8" cy="180.8" r="12.2"/>
			<path class="st5" d="M670.6,409.6h-21.8V235c0-2.1-1.7-3.8-3.8-3.8l0,0c-2.1,0-3.8,1.7-3.8,3.8v174.6h-21.5
				c-2.6,0-4.9,1.9-5.2,4.5c-0.3,3,2,5.5,5,5.5h51.3c2.9,0,5.2-2.5,5-5.5C675.5,411.5,673.2,409.6,670.6,409.6z"/>
			<circle class="st4" cx="646.3" cy="286.3" r="8"/>
		</g>
		<g>
			<g>
				<rect x="321.8" y="344.6" class="st14" width="95.4" height="41.3"/>
				<path class="st14" d="M193.9,334V134.6c0-8.1,6.6-14.7,14.7-14.7h318.9c8.1,0,14.7,6.6,14.7,14.7V334c0,8.1-6.6,14.7-14.7,14.7
					H208.6C200.5,348.7,193.9,342.1,193.9,334z"/>
				<path class="st1" d="M532,134.5v199.7c0,2.3-1.7,4.1-3.9,4.4c-0.2,0-0.3,0-0.5,0H208.5c-2.4,0-4.4-2-4.4-4.4V134.5
					c0-2.4,2-4.4,4.4-4.4h319.1C530.1,130.1,532,132,532,134.5z"/>
				<path class="st17" d="M528.2,338.5c-0.2,0-0.3,0-0.5,0H208.5c-2.4,0-4.4-2-4.4-4.4V134.5L528.2,338.5z"/>
				<path class="st16" d="M516.4,323.7H219.8c-1.1,0-2-0.9-2-2V165.8c0-1.1,0.9-2,2-2h296.6c1.1,0,2,0.9,2,2v155.9
					C518.4,322.8,517.5,323.7,516.4,323.7z"/>
				<path class="st16" d="M507,154.5H390.2c-4.2,0-7.6-3.4-7.6-7.6v-0.3c0-4.2,3.4-7.6,7.6-7.6H507c4.2,0,7.6,3.4,7.6,7.6v0.3
					C514.6,151.1,511.2,154.5,507,154.5z"/>
				<polygon class="st15" points="417.2,348.7 417.2,375.1 321.8,352.1 321.8,348.7 				"/>
				<g>
					<rect x="231.1" y="191.1" class="st18" width="270.4" height="116.3"/>
					<line class="st18" x1="231.1" y1="201.6" x2="501.5" y2="201.6"/>
					<line class="st18" x1="231.1" y1="213.4" x2="501.5" y2="213.4"/>
					<line class="st18" x1="231.1" y1="225.1" x2="501.5" y2="225.1"/>
					<line class="st18" x1="231.1" y1="236.9" x2="501.5" y2="236.9"/>
					<line class="st18" x1="231.1" y1="248.7" x2="501.5" y2="248.7"/>
					<line class="st18" x1="231.1" y1="260.5" x2="501.5" y2="260.5"/>
					<line class="st18" x1="231.1" y1="272.2" x2="501.5" y2="272.2"/>
					<line class="st18" x1="231.1" y1="284" x2="501.5" y2="284"/>
					<line class="st18" x1="231.1" y1="295.8" x2="501.5" y2="295.8"/>
				</g>
				<g>
					<polygon class="st14" points="508.3,388.6 224.6,388.6 212.4,400.4 212.4,413.2 526.7,413.2 526.7,400.4 					"/>
					<polygon class="st19" points="501,384.9 372,384.9 363,384.9 234,384.9 222.8,394.5 222.8,400.4 363,400.4 372,400.4 
						512.1,400.4 512.1,394.5 					"/>
				</g>
				<g>
					<rect x="452.4" y="176.5" class="st12" width="15.3" height="130.7"/>
					<rect x="414.3" y="194.3" class="st19" width="15.3" height="112.8"/>
					<rect x="376.2" y="206.2" class="st5" width="15.3" height="100.9"/>
					<rect x="338.1" y="227.1" class="st12" width="15.3" height="80.1"/>
					<rect x="300" y="248.9" class="st4" width="15.3" height="58.2"/>
					<rect x="261.9" y="275.6" class="st20" width="15.3" height="31.6"/>
					<polygon class="st19" points="440.4,167 430.5,171.9 433.9,173 429.1,178.5 393.8,178.5 383.3,194.9 350.3,194.9 324.6,228.8 
						301.4,228.8 275.8,262.6 249.5,262.6 249.5,264.5 276.7,264.5 302.4,230.6 325.6,230.6 351.2,196.8 384.4,196.8 394.9,180.4 
						430,180.4 435.3,174.2 436.9,177.5 					"/>
				</g>
			</g>
			<g>
				<polygon class="st9" points="562.9,435.9 563.7,443.1 571.4,443.1 571.4,436.4 				"/>
				<path class="st15" d="M563.5,441.5c0,0-11.4,6.8-11.4,8c0,1.2,0.3,1.7,7.4,1.7c7.1,0,11.4,0.3,12.3,0c0.9-0.3-0.5-9.7-0.5-9.7
					S567.3,440.4,563.5,441.5z"/>
				<polygon class="st9" points="588.8,435.9 589.7,441 597.6,441 597.6,436.4 				"/>
				<path class="st15" d="M597.6,440.5h-8l-1.1,3.8c-1.3,1.2-3.2,2.8-4.2,3.5c-1.6,1.2-2.7,2.9,2.1,3.5c0.3,0,0.6,0,0.9,0h9.9
					c1,0,1.8-0.9,1.8-1.9C598.6,446.1,597.6,440.5,597.6,440.5z"/>
				<path class="st9" d="M600.4,299.6c0,0,1.1,15.2,2.2,26.2c1.1,11.1-4.7,29.3-4.7,29.3s-0.2,3.8-1.2,5.7c-1,1.9-2.7,2.5-2.7,2.5
					l-0.4-14l0.8-18.2l-3-18.4l2.8-8.5L600.4,299.6z"/>
				<path class="st21" d="M591.8,277.8c0,0,7.2,6.2,12.1,22.7l-10.5,6.8C593.4,307.3,594.3,285.2,591.8,277.8z"/>
				<polygon class="st5" points="591.3,340.9 607,344.7 603.6,365.9 590.5,361.7 				"/>
				<path class="st15" d="M598.9,437.4l-11.5,1.1l-10.9-81.2l-4.4,81.5l-10.4,0.7c0,0,0,0,0-0.1c-0.1-1.6-3-31.2-4.3-47.7
					c-1.3-15.6-2.1-51.8-2.3-57.3c0-0.5,0-0.7,0-0.7c23.4,4.8,38,0,38,0L598.9,437.4z"/>
				<path class="st13" d="M560.2,395.5c0.7,25.4,4.1,43.8,4.1,43.8l-2.7,0.2c-0.1-1.6-3-31.2-4.3-47.7c-1.3-15.6-2.1-51.8-2.3-57.3
					c1.8,0.6,5.8,1.7,11.2,1.9C566.2,336.4,558.7,342.9,560.2,395.5z"/>
				<path class="st9" d="M577.1,274.1l-10,3.7v-7.2c0,0-6.7-2.9-7-11.2c-0.3-8.2,2.9-16.8,12.4-16.5c9.5,0.3,11,10.3,10.2,14.3
					c-0.8,4-5.2,9.2-5.2,9.2L577.1,274.1z"/>
				<path class="st15" d="M567.6,251.6c0,0-2.6,3.7-1.5,6.8c0,0,1.6-2,3.1-1.9s2.2,2.1,1.3,4.9c-1,2.8-4.1,2.5-4.1,2.5
					s1.5,2.3,2.7,3.3l8.4-0.7c0,0,6.7-6.3,7.5-10c0.8-3.7-0.6-4.9-0.6-4.9s1.2-3.5-1.5-6.6c-2.6-3.1-10.2-7.6-13.5-7.6
					c-3.3,0-3.2,2-3.2,2s-3.2-1.7-3.4,1.5C562.7,242.2,562.8,247.2,567.6,251.6z"/>
				<path class="st4" d="M565.9,274.9l-14.2,5.1l3.3,54.4c0,0,10.9,2.6,22.2,2.2c11.3-0.4,15.7-2.4,15.7-2.4s3.3-40.2,3.1-46.1
					c-0.2-5.9-4.2-10.4-4.2-10.4l-7-2.7C578.8,272.7,572,272.7,565.9,274.9z"/>
				<path class="st21" d="M565.1,275.2c0,0,2.1-3.6,8.1-4.8c6-1.2,8.5,3.7,8.5,3.7S573.5,272.1,565.1,275.2z"/>
				<path class="st9" d="M556.6,343.2c-0.3-2.9-1-3.1-1-3.1L543.4,324l10.1-15.2l-10.6-12.3c0,0-11.1,21.1-11.7,27.5
					c-0.6,6.4,19.3,22.2,19.3,22.2c0.1,0.7,2.5,4.8,2.5,4.8s0.2,1.5,0.4,2.9c0.2,1.3,2.2,1.2,2.2,1.2l0-4.1
					C555.6,351.1,557,346.1,556.6,343.2z"/>
				<path class="st4" d="M551.7,280l-13.2,16.2l15,12.6C553.4,308.8,559.4,292.8,551.7,280z"/>
				<path class="st21" d="M553.4,308.8c0,0,3.9-17.3,0-27.1c0,0,5.9,5.3,5.2,16.5c-0.7,11.2-4.9,15.1-4.9,15.1L553.4,308.8z"/>
				<path class="st13" d="M576.4,357.3l12-6.3c0,0-4.1,3.6-2.9,26.1c1.2,22.5,7.7,60.7,7.7,60.7l-5.8,0.5L576.4,357.3z"/>
			</g>
			<g>
				<path class="st9" d="M170.2,385.1c0,0,5.5,38.8,12.5,55.6l6.2-1.2l-6.1-58.5L170.2,385.1z"/>
				<path class="st14" d="M181.5,437.5c0,0,0.1,7.6,1.5,10.6c1.4,2.9,1.4,2.9,1.4,2.9l2.3-0.5l-0.5-2.7c0,0,2.9,1,4.5,1.4
					c1.6,0.4,12.1-1.3,13.4-2.2c1.3-0.9-9.3-4.1-9.3-4.1s-3.5,2.3-7.1,0.6C184,441.7,181.5,437.5,181.5,437.5z"/>
				<path class="st9" d="M188.1,437.4c0,0,4.9,4.9,6.6,5.4c1.7,0.5-4.1,3.7-8.3,0.8c-4.2-2.8-4.8-5.9-4.8-5.9L188.1,437.4z"/>
				<path class="st9" d="M157,385.4c0,0-2.3,39.2,1.2,56.9h6.3l5.6-58.6L157,385.4z"/>
				<polygon class="st5" points="160.1,273.6 144.5,279.9 153.1,326 175,325.2 180.1,279.3 168.9,275.7 168.9,278.2 				"/>
				<polygon class="st22" points="156.8,293.4 161.5,317.3 177.8,313.6 173.1,290.9 				"/>
				<path class="st9" d="M141.7,285.6c0.9,6.9,2.7,17.5,5.7,24.5c1.4,3.3,5.3,4.9,8.7,3.7l19.4-6.7l-2-5.7l-17.9,2.1
					c0,0-0.8-13.2-3.3-20.5c0-0.1-0.1-0.1-0.1-0.2C150,276.8,140.9,279.1,141.7,285.6z"/>
				<path class="st23" d="M180.1,279.3c0,0,2.7,2,2.1,11.5c-0.6,9.4,2.7,19.5-3.5,20.3C178.7,311.1,179,284.3,180.1,279.3z"/>
				<path class="st9" d="M182.3,304.2c-0.1,5.5-3.6,6.9-3.6,6.9s-2.2,0.7-5-3.8c-1.7-2.7-1.5-29-1.5-31.6c0,0,0,0,0,0l0,0l-2.3-4.6
					l-0.1-0.3l0.3-1.1l0,0l2,1.4l0.4-2.1l2.2-5.8l1.4,1.5v0l0.3,0.3l0.4,1.1c0,0,1.1,0.8,1,1.4c-0.1,0.6-1,5.4-1,5.4
					c0,0.1-0.1,0.2-0.2,0.3C177.8,278.5,182.4,299.4,182.3,304.2z"/>
				<path class="st23" d="M174.3,274c0,0-0.6,2-2,1.8c0,0,0,0,0,0l-2.3-4.6c0-0.4,0.1-0.9,0.1-1.4l2,1.4l0.4-2.1l2.2-5.8l1.4,1.5v0
					C177.4,269.3,174.3,274,174.3,274z"/>
				<path class="st9" d="M160.2,275l8.7,3.2v-6.2c0,0,5.8-2.5,6.1-9.7c0.3-7.2-2.5-14.7-10.8-14.4c-8.3,0.3-9.6,9-8.9,12.5
					c0.7,3.5,4.6,8,4.6,8L160.2,275z"/>
				<path class="st15" d="M155.7,248.5c0,0-3,1.8-5.4,7.9c-2.4,6.1-4.5,18.2-4.5,18.2l5,0.5l0.9-3.3l-0.1,3.3c0,0,6.4,0.7,8.5,0.7
					c0,0,0.3-7.5,0-10.5c-0.3-3-2.4-1.2-3.3-5.3c-0.9-4.1,2.2-3.4,3.1-2c0.8,1.4,1,2.6,1,2.6l0.8-0.4c0,0,1.3-4,0-6.8
					c0,0,4.7-1.4,6.9-1.2v-1.9l0.9,1.9l3.8,0.7c0,0,2,3.8,1.9,7.1c0,0,1.8-3.3,0-8.2C173.2,246.8,163.3,242.2,155.7,248.5z"/>
				<path class="st15" d="M185,385.4C185,385.4,185,385.4,185,385.4l-29.9,5.3c0,0-9.8-37.7-9.4-51.4c0.4-13.6,5.6-20.2,5.6-20.2
					c20.4,3.4,24.6,0,24.6,0C186.4,337.3,185,384.5,185,385.4z"/>
				<path class="st14" d="M157.6,439c0,0-1.4,7.5-0.7,10.6c0.8,3.1,0.8,3.1,0.8,3.1h2.4V450c0,0,2.6,1.6,4.1,2.3
					c1.5,0.7,12.1,1.1,13.6,0.5c1.5-0.6-8.3-5.9-8.3-5.9s-3.9,1.5-7.1-0.8C159.3,443.7,157.6,439,157.6,439z"/>
				<path class="st9" d="M164.1,440.3c0,0,3.9,5.7,5.4,6.6c1.5,0.9-4.7,2.8-8.3-0.8c-3.5-3.6-3.5-6.7-3.5-6.7L164.1,440.3z"/>
				<path class="st15" d="M160.1,273.6l7.8,4.2c0,0-2.9,1.8-5.5,1.5c-2.6-0.3-4.6-4.8-4.6-4.8L160.1,273.6z"/>
				<path class="st15" d="M168.9,274.8l-1,3c0,0,0.9,1.3,1.9,0.9c1-0.3,0.8-3,0.8-3L168.9,274.8z"/>
				<path class="st13" d="M185,385.4c0-0.3-0.1-9.4-7.7-28.4c-7.8-19.2-26-37.9-26-37.9c20.4,3.4,24.6,0,24.6,0
					C186.4,337.3,185,384.5,185,385.4z"/>
				<path class="st23" d="M161.3,266.8c0,0,1.8,4.3,7.6,5.1v1.7C168.9,273.6,161.7,273.7,161.3,266.8z"/>
				<path class="st23" d="M155.8,304.1c0,0,0,3.1-0.5,5.6C155.3,309.7,158.4,307.9,155.8,304.1z"/>
				<path class="st23" d="M171.9,395.5l11.8-6.4l-0.4-3.4l-12.6,2.2C170.7,388,171.8,395.1,171.9,395.5z"/>
				<polygon class="st23" points="168.9,396.2 156.5,397.2 156.7,390.4 169.7,388.1 				"/>
			</g>
		</g>
	</g>
</g>
</svg>
